<?xml version="1.0" encoding="utf-8"?>
<!DOCTYPE svg PUBLIC "-//W3C//DTD SVG 1.0//EN" "http://www.w3.org/TR/2001/REC-SVG-20010904/DTD/svg10.dtd">
<svg version="1.0" xmlns="http://www.w3.org/2000/svg" width="794px" height="696px" viewBox="0 0 794 696" preserveAspectRatio="xMidYMid meet">
 <g fill="#01276e" stroke="#01276e" stroke-width="1">
  <path d="M389.6 600.5 c-1.2 -1.8 -1.6 -4.9 -1.6 -12.1 l0 -9.7 -97.7 -158 c-68.9 -111.3 -97.9 -159.1 -98.1 -161.4 -0.3 -3.2 -0.2 -3.3 3.5 -3.3 2.9 -0.1 11.5 3.8 38.4 17.1 l34.7 17.2 8 -6.2 7.9 -6.1 7.8 -18.4 7.7 -18.4 24.4 -9.2 c14.3 -5.3 25.5 -9 27 -8.8 2.3 0.3 4 2.6 12.5 17.8 7.9 14 9.9 18.3 9.9 21.5 0 3.7 -1.4 5.7 -15.5 23.7 l-15.5 19.6 8.2 13.7 c6.5 10.8 8.4 13.3 9.3 12.3 1.3 -1.4 24.4 -38.7 26.4 -42.6 0.9 -1.7 1.1 -16.1 0.9 -55.7 -0.2 -41.3 0 -53.1 0.9 -52.3 0.7 0.5 2.2 0.8 3.5 0.6 2.1 -0.3 3.7 -4.5 18.1 -47.3 l15.7 -47 14.2 -8.8 c7.7 -4.8 14.2 -8.6 14.4 -8.4 0.2 0.2 -6.4 23.8 -14.7 52.5 -8.4 28.6 -14.9 52.8 -14.6 53.6 0.4 0.9 5.2 3.9 10.8 6.6 5.7 2.8 10.4 5.1 10.5 5.3 0.2 0.2 -0.3 2.5 -1.1 5.2 -0.8 2.6 -1.5 6.1 -1.5 7.7 0 3.6 -0.8 3.3 32.5 13.8 l26.1 8.2 3.3 15.2 c1.9 8.3 3.8 15.7 4.4 16.3 0.5 0.7 2.2 1.3 3.6 1.3 1.5 0 23.4 -9.8 48.7 -21.8 53.7 -25.5 50.2 -22.6 41.4 -35.7 -2.8 -4.1 -4.8 -7.5 -4.5 -7.5 0.3 0 13.3 4.3 28.9 9.6 l28.3 9.5 5.2 10.7 5.2 10.7 -10.1 0.3 -10 0.3 -2.9 3.9 c-1.6 2.2 -58.8 85.7 -127.2 185.5 -68.3 99.8 -124.6 181.5 -125 181.5 -0.3 0 -1.4 -1.1 -2.3 -2.5z m99.4 -195.5 l7.7 -12.5 -9.8 -0.3 -9.9 -0.3 0 -12 0 -12 -9.2 0.3 -9.3 0.3 -0.3 11.8 -0.3 11.7 -12.4 0 -12.5 0 0 -32.2 0 -32.3 -3.7 6.3 c-3.5 5.8 -4 6.2 -7.4 6.2 l-3.7 0 -10.3 -16.7 c-5.6 -9.3 -10.6 -17.2 -11.1 -17.7 -0.4 -0.6 -0.8 6 -0.8 14.6 l0 15.5 25 39.6 c19.8 31.3 25 40.2 25 42.9 0 2.6 -2.5 7.1 -11.5 20.5 l-11.5 17.3 1 13.7 c1.6 22.1 2.9 18.5 -13.5 37.8 l-14.5 17 0 15.4 0 15.5 42.6 -69 c23.5 -37.9 46.1 -74.5 50.4 -81.4z m-101.2 -10.7 l-0.3 -37.8 -19.7 30.6 c-10.9 16.8 -19.8 30.9 -19.8 31.3 0 0.3 4.3 7.4 9.5 15.8 l9.5 15.2 0 16.7 0 16.7 10.3 12 10.2 12 0.3 -37.4 c0.1 -20.6 0.1 -54.4 0 -75.1z m-59.8 -14.8 l0 -6.5 -16.7 -0.2 -16.8 -0.3 0 -17.5 0 -17.5 14.8 -0.5 14.8 -0.5 3.5 -6.2 3.5 -6.3 -18.8 0 -18.7 0 -6.3 6.2 -6.3 6.2 0 18.5 0 18.5 6.2 6.3 6.2 6.3 17.3 0 17.3 0 0 -6.5z m211.1 -55.5 c19.8 -32 35.9 -58.4 35.7 -58.5 -0.2 -0.2 -13.5 6.1 -29.7 14.1 -20.9 10.2 -30.4 14.4 -32.9 14.4 -2.8 0 -5.3 -1.4 -12.4 -6.7 l-8.8 -6.8 -7.8 -18.4 -7.8 -18.4 -20.9 -7.9 c-11.4 -4.3 -21.1 -7.8 -21.6 -7.8 -0.6 0 -11.9 19.3 -16.8 28.7 -1 1.9 0.5 4.1 14.4 21.7 18 22.8 18.1 23.1 12 33.3 l-3.5 5.8 9.5 0.3 9.4 0.3 0.3 11.7 0.3 11.7 9.3 0.3 9.2 0.3 0 -12.1 0 -12 12.5 0 12.5 0 0 32.7 c0 17.9 0.2 32.4 0.5 32.1 0.3 -0.3 16.7 -26.7 36.6 -58.8z"/>
 </g>
 <g fill="#f5f5f5" stroke="#f5f5f5" stroke-width="1">
  <path d="M376.1 580.6 c-7.9 -11.6 -65 -95 -126.9 -185.3 l-112.5 -164.3 -9.9 0.7 c-5.4 0.3 -9.8 0.3 -9.8 0 0 -0.4 2.3 -5.4 5.2 -11.1 l5.2 -10.4 28 -9.6 c15.4 -5.3 28.2 -9.4 28.4 -9.2 0.2 0.3 -1.9 3.9 -4.8 8.1 -3.5 5.1 -5 8.4 -4.8 10.1 0.3 2.2 5.3 4.8 47.8 24.9 26.1 12.4 48.2 22.5 49.2 22.5 2.5 0 3.1 -1.7 6.8 -18.7 l3.3 -15.2 12.6 -4 c6.9 -2.1 20.2 -6.3 29.5 -9.2 9.9 -3.2 17.1 -5.9 17.4 -6.8 0.3 -0.8 -0.4 -4.2 -1.6 -7.5 -1.2 -3.4 -2.2 -6.4 -2.2 -6.8 0 -0.3 4.7 -2.9 10.5 -5.7 5.8 -2.7 10.8 -5.7 11.1 -6.6 0.4 -0.8 -6.2 -25 -14.5 -53.7 -8.3 -28.6 -15 -52.2 -14.9 -52.4 0.2 -0.1 6.6 3.7 14.3 8.5 l14 8.8 15.5 46.6 c8.5 25.7 16.1 47.2 16.8 47.9 1.7 1.6 1.8 106.8 0.1 110.1 -2 3.8 -28.2 46.1 -29.4 47.5 -0.9 1 -3.3 -2.3 -11.5 -15.9 -5.7 -9.5 -10.3 -17.8 -10.3 -18.4 0 -0.6 6.7 -9.6 15 -20.1 8.2 -10.4 15.6 -19.9 16.3 -21.1 1.2 -1.9 0.5 -3.5 -7 -16.9 -4.5 -8.2 -9.1 -16.3 -10.1 -18 l-1.9 -3.2 -23.9 9 -23.9 9 -7.8 18.4 -7.7 18.5 -8.9 6.7 c-4.9 3.7 -9.4 6.6 -10.1 6.4 -0.7 -0.1 -17.3 -8.2 -36.9 -17.9 -19.7 -9.7 -35.9 -17.5 -36.1 -17.2 -0.2 0.2 43.7 71.6 97.5 158.5 l97.9 158.2 -0.3 12.9 -0.3 12.9 -14.4 -21z"/>
  <path d="M393 544.4 l0 -22.9 4.3 -5 c2.4 -2.8 8.9 -10.4 14.5 -17.1 l10.2 -12.1 -1.2 -17 -1.1 -16.9 11.8 -17.6 11.7 -17.6 -25.1 -39.8 -25.1 -39.7 0 -23.6 c0 -20 0.2 -23.2 1.3 -21.6 0.8 1.1 7.1 11.3 14.1 22.8 7 11.4 13.1 20.7 13.5 20.7 0.7 0 20.4 -32.5 20.9 -34.6 0.2 -0.7 -7.2 -10.7 -16.3 -22.3 l-16.6 -21 10.2 -18 c5.5 -10 10.4 -18.1 10.8 -18.1 0.3 0 11.1 4 24 8.8 l23.5 8.9 7.8 18.4 7.8 18.4 9 6.9 9.1 6.9 36.7 -18 c20.2 -9.9 36.8 -17.9 37 -17.8 0.3 0.3 -190.4 309.2 -191.9 311 -0.5 0.5 -0.9 -9.2 -0.9 -22.1z m62.2 -167.1 l0.3 -11.8 12.3 -0.3 12.2 -0.3 0 12.1 0 12 9.5 0 9.5 0 0 -34 0 -34 -9.5 0 -9.5 0 0 12 0 12.1 -12.2 -0.3 -12.3 -0.3 -0.3 -11.7 -0.3 -11.8 -9.4 0 -9.5 0 0 34 0 34 9.5 0 9.4 0 0.3 -11.7z"/>
  <path d="M377.3 501.3 l-13.3 -15.5 0 -16.7 0 -16.7 -10.5 -16.8 c-5.8 -9.2 -10.5 -17 -10.5 -17.3 0 -0.3 10.7 -17.1 23.8 -37.3 l23.7 -36.8 0.3 43.5 c0.1 23.9 0.1 62.7 0 86.3 l-0.3 42.8 -13.2 -15.5z"/>
  <path d="M284.2 382.7 l-6.2 -6.3 0 -21.5 0 -21.5 6.3 -6.2 6.3 -6.2 22.7 0 c18.7 0 22.7 0.2 22.7 1.4 0 0.7 -2 4.9 -4.5 9.2 l-4.5 7.9 -14.7 0.5 -14.8 0.5 0 14.5 0 14.5 16.8 0.3 16.7 0.2 0 9.5 0 9.5 -20.3 0 -20.3 0 -6.2 -6.3z"/>
 </g>
</svg>